# xmcd
# 
# Track frame offsets:
#     150
#     14480
#     28608
#     51738
#     75156
#     87746
#     104534
#     122468
#     139839
#     155125
#     170745
#     189191
#     201755
#     212724
#     230113
#     246125
#     260255
# 
# Disc length: 3688
# 
# Revision: 1
# Processed by: cddbd v1.5.2PL0 Copyright (c) Steve Scherf et al.
# Submitted via: BonkEnc v1.0
# 
DISCID=f20e6611
DTITLE=Banda Calypso - 100%
DYEAR=2007
DGENRE=Calypso
TTITLE0=Beija Flôr
TTITLE1=Você Me Enganou
TTITLE2=Chamo Por Você/Me Telefona
TTITLE3=Principe Encantado/Temporal
TTITLE4=Brincou Comigo
TTITLE5=Paquera
TTITLE6=A Lua Me Traiu
TTITLE7=Imagino
TTITLE8=Esqueça o Meu Coração
TTITLE9=Não Faz Sentido
TTITLE10=Maridos e Esposas
TTITLE11=Cúmbia do Amor
TTITLE12=Lágrimas de Sangue
TTITLE13=Dudu
TTITLE14=Pra Todo Mundo Ver
TTITLE15=Dançando Calypso
TTITLE16=Primeiro Amor
EXTD=
EXTT0=
EXTT1=
EXTT2=
EXTT3=
EXTT4=
EXTT5=
EXTT6=
EXTT7=
EXTT8=
EXTT9=
EXTT10=
EXTT11=
EXTT12=
EXTT13=
EXTT14=
EXTT15=
EXTT16=
PLAYORDER=
